<svg xmlns="http://www.w3.org/2000/svg" width="19" height="21" viewBox="0 0 19 21"><defs><mask id="jwe1b" width="2" height="2" x="-1" y="-1"><path fill="#fff" d="M0 0h17v17H0z"/><path d="M8.5 0a8.5 8.5 0 1 1 0 17 8.5 8.5 0 0 1 0-17z"/></mask><filter id="jwe1a" width="39.5" height="41.3" x="-10" y="-10" filterUnits="userSpaceOnUse"><feOffset dx="2.5" dy="4.3" in="SourceGraphic" result="FeOffset1053Out"/><feGaussianBlur in="FeOffset1053Out" result="FeGaussianBlur1054Out" stdDeviation="0 0"/></filter></defs><g><g><g filter="url(#jwe1a)"><path fill="none" d="M8.5 0a8.5 8.5 0 1 1 0 17 8.5 8.5 0 0 1 0-17z" mask="url(&quot;#jwe1b&quot;)"/><path fill="#0a0c0c" fill-opacity=".1" d="M8.5 0a8.5 8.5 0 1 1 0 17 8.5 8.5 0 0 1 0-17z"/></g><path fill="#fff" d="M8.5 0a8.5 8.5 0 1 1 0 17 8.5 8.5 0 0 1 0-17z"/></g></g></svg>